<?xml version="1.0" encoding="UTF-8"?>
<svg id="_图层_1" data-name="图层 1" xmlns="http://www.w3.org/2000/svg" viewBox="0 0 764.03 340.2">
  <defs>
    <style>
      .cls-1 {
        fill: #040000;
      }

      .cls-2 {
        fill: #e61e41;
      }
    </style>
  </defs>
  <g>
    <path class="cls-1" d="M125.74,168.11h-49.79v102.02h-22.59v-102.02H3.48v-22.59H125.74v22.59Z"/>
    <path class="cls-1" d="M162.76,270.13h-22.59V136.48h22.59v133.65Zm81.51,0h-22.59v-62.3c0-2.95-.75-5.2-2.26-6.73-1.51-1.53-3.77-2.3-6.78-2.3h-40.75v-22.59h40.75c2.14,0,4.4,.25,6.78,.74,2.38,.49,4.74,1.26,7.08,2.3,2.35,1.04,4.59,2.39,6.73,4.04,2.14,1.65,4.03,3.65,5.65,6,1.62,2.35,2.92,5.05,3.91,8.12,.98,3.07,1.48,6.55,1.48,10.43v62.3Z"/>
    <path class="cls-1" d="M366,207.3c0,3.13-.55,6.5-1.65,10.12-1.1,3.62-2.88,6.98-5.34,10.08-2.46,3.1-5.68,5.69-9.65,7.78-3.97,2.08-8.79,3.13-14.47,3.13h-40.75v-21.46h40.75c3.07,0,5.44-.94,7.12-2.82,1.68-1.88,2.52-4.21,2.52-7,0-2.96-.94-5.27-2.82-6.95-1.88-1.68-4.16-2.52-6.82-2.52h-40.75c-3.07,0-5.45,.94-7.12,2.82-1.68,1.88-2.52,4.21-2.52,7v31.54c0,3.01,.94,5.36,2.82,7.04,1.88,1.68,4.21,2.52,7,2.52h40.58v21.55h-40.75c-3.13,0-6.5-.55-10.12-1.65-3.62-1.1-6.98-2.88-10.08-5.34-3.1-2.46-5.69-5.68-7.78-9.65-2.08-3.97-3.13-8.79-3.13-14.47v-31.72c0-3.13,.55-6.5,1.65-10.12,1.1-3.62,2.88-6.98,5.34-10.08,2.46-3.1,5.68-5.69,9.65-7.78,3.97-2.09,8.79-3.13,14.47-3.13h40.75c3.13,0,6.5,.55,10.12,1.65,3.62,1.1,6.98,2.88,10.08,5.34,3.1,2.46,5.69,5.68,7.78,9.65,2.09,3.97,3.13,8.79,3.13,14.47Z"/>
    <path class="cls-1" d="M508.08,242.76c0,2.78-.48,5.76-1.43,8.95-.96,3.19-2.52,6.14-4.69,8.86-2.17,2.72-5,5-8.47,6.82-3.48,1.83-7.73,2.74-12.77,2.74h-85.77c-1.62,0-3.13-.29-4.52-.87-1.39-.58-2.59-1.38-3.61-2.39-1.01-1.01-1.81-2.22-2.39-3.61-.58-1.39-.87-2.9-.87-4.52v-101.84c0-1.56,.29-3.04,.87-4.43,.58-1.39,1.38-2.61,2.39-3.65,1.01-1.04,2.22-1.85,3.61-2.43,1.39-.58,2.9-.87,4.52-.87h75.6c2.78,0,5.76,.49,8.95,1.48,3.19,.99,6.16,2.56,8.91,4.74,2.75,2.17,5.04,5,6.87,8.47,1.82,3.48,2.74,7.73,2.74,12.77v4.26c0,4-.67,8.3-2,12.9-1.33,4.61-3.48,8.96-6.43,13.08,2.55,1.56,4.94,3.45,7.17,5.65,2.23,2.2,4.18,4.75,5.87,7.65,1.68,2.9,3.01,6.17,4,9.82,.98,3.65,1.48,7.68,1.48,12.08v4.34Zm-22.59-4.34c0-2.95-.46-5.6-1.39-7.95-.93-2.35-2.23-4.36-3.91-6.04-1.68-1.68-3.71-2.97-6.08-3.87-2.38-.9-5.04-1.35-8-1.35h-50.92v-22.77h40.75c2.95,0,5.62-.45,7.99-1.35,2.37-.9,4.4-2.19,6.08-3.87s2.97-3.69,3.87-6.04c.9-2.35,1.35-5,1.35-7.95v-4.26c0-3.24-1.56-4.87-4.69-4.87h-64.39v79.42h74.56c.4,0,.9-.03,1.48-.09,.58-.06,1.1-.23,1.56-.52,.46-.29,.87-.78,1.22-1.48s.52-1.65,.52-2.87v-4.17Z"/>
    <path class="cls-1" d="M701.73,270.13h-22.59v-30.59h-79.42v30.59h-22.59v-62.3c0-9.09,1.56-17.47,4.69-25.11,3.13-7.65,7.47-14.22,13.03-19.73,5.56-5.5,12.14-9.79,19.73-12.86,7.59-3.07,15.87-4.61,24.85-4.61h50.92c1.56,0,3.04,.29,4.43,.87,1.39,.58,2.61,1.39,3.65,2.43,1.04,1.04,1.85,2.26,2.43,3.65,.58,1.39,.87,2.87,.87,4.43v113.23Zm-102.02-53.18h79.42v-48.84h-39.71c-.7,0-2.16,.1-4.39,.3-2.23,.2-4.81,.71-7.73,1.52-2.93,.81-6.01,2.06-9.25,3.74-3.25,1.68-6.23,4-8.95,6.95-2.72,2.96-4.97,6.65-6.73,11.08-1.77,4.43-2.65,9.81-2.65,16.12v9.12Z"/>
    <path class="cls-1" d="M750.74,270.13h-22.59v-124.61h22.59v124.61Z"/>
  </g>
  <path class="cls-2" d="M529.52,253.8c0-7.5,5.7-13.8,13.2-13.8s13.5,6.3,13.5,13.8c0,8.1-5.7,13.5-13.5,13.5-8.4-.3-13.2-6-13.2-13.5Z"/>
</svg>